<?xml version="1.0" standalone="no"?>
<!DOCTYPE svg PUBLIC "-//W3C//DTD SVG 20010904//EN"
 "http://www.w3.org/TR/2001/REC-SVG-20010904/DTD/svg10.dtd">
<svg version="1.0" xmlns="http://www.w3.org/2000/svg"
 width="2548.000000pt" height="442.000000pt" viewBox="0 0 2548.000000 442.000000"
 preserveAspectRatio="xMidYMid meet">

<g transform="translate(0.000000,442.000000) scale(0.100000,-0.100000)"
fill="#ffffff" stroke="none">
<path d="M17135 3753 c-92 -33 -156 -97 -185 -187 -20 -62 -9 -175 23 -229 60
-101 159 -153 276 -145 81 6 133 31 189 91 57 63 75 108 75 192 1 82 -22 141
-77 203 -70 77 -203 110 -301 75z"/>
<path d="M19995 3753 c-67 -24 -109 -55 -143 -106 -40 -58 -52 -99 -52 -177 0
-166 138 -290 309 -278 81 6 133 31 189 91 57 63 75 108 75 192 1 80 -21 139
-72 198 -71 80 -207 115 -306 80z"/>
<path d="M625 3720 c-2 -4 509 -1995 636 -2477 l22 -83 343 0 343 0 10 38 c12
45 134 522 313 1225 72 284 134 517 137 517 3 0 32 -102 64 -228 55 -217 381
-1496 393 -1537 5 -20 12 -20 327 -17 177 2 323 4 324 6 2 1 26 90 53 197 27
107 63 246 80 309 147 558 528 2046 525 2050 -2 3 -115 4 -253 2 l-249 -3 -37
-142 c-19 -78 -123 -484 -229 -902 -117 -459 -197 -752 -200 -740 -6 19 -95
364 -267 1040 -86 337 -164 645 -181 708 l-10 37 -324 0 -324 0 -9 -32 c-5
-18 -112 -438 -238 -933 -126 -495 -230 -893 -232 -885 -1 8 -108 427 -236
930 l-233 915 -273 5 c-149 3 -273 3 -275 0z"/>
<path d="M14524 3715 c-2 -5 -3 -583 -2 -1283 l3 -1273 522 1 c564 0 650 6
836 55 305 79 542 264 671 523 95 190 138 406 138 697 0 273 -32 459 -113 649
-89 210 -258 390 -464 493 -147 74 -359 130 -534 139 -186 10 -1053 9 -1057
-1z m1107 -453 c242 -66 392 -220 454 -468 50 -195 52 -506 5 -696 -63 -256
-211 -411 -456 -479 -68 -18 -113 -22 -316 -26 l-238 -5 0 852 0 852 238 -4
c199 -4 249 -8 313 -26z"/>
<path d="M23650 3725 c0 0 0 -577 0 -1283 l0 -1283 262 0 263 0 0 1281 0 1281
-263 2 c-144 1 -262 2 -262 2z"/>
<path d="M7672 2458 l3 -933 24 -70 c33 -99 56 -141 109 -198 82 -87 164 -126
311 -147 92 -14 273 -1 386 27 61 16 69 21 68 41 0 12 -1 82 -2 156 l-1 133
-89 -5 c-144 -8 -226 33 -275 138 -20 43 -21 62 -24 512 l-3 468 202 2 201 3
2 177 1 178 -175 1 c-96 1 -185 0 -197 -1 -32 -2 -34 17 -31 248 l3 202 -258
0 -258 0 3 -932z"/>
<path d="M20682 2463 c3 -852 5 -933 21 -988 56 -189 167 -303 344 -351 114
-30 311 -24 468 14 68 17 70 18 69 47 -1 17 -2 87 -3 156 l-1 126 -89 -5
c-110 -6 -171 12 -224 66 -73 75 -72 62 -75 584 l-3 468 203 2 203 3 0 179 0
178 -200 2 -200 1 0 223 0 222 -258 0 -258 0 3 -927z"/>
<path d="M4791 2990 c-281 -40 -519 -210 -640 -457 -82 -167 -106 -279 -105
-493 1 -144 4 -177 27 -264 34 -127 101 -264 172 -354 183 -229 486 -345 817
-312 201 20 359 86 483 202 67 63 145 163 145 186 0 5 -77 54 -172 108 l-171
98 -15 -24 c-9 -14 -43 -52 -77 -86 -86 -86 -144 -108 -290 -108 -99 -1 -116
2 -167 26 -110 51 -188 151 -223 283 -27 106 -102 95 615 95 l630 0 0 108 c0
204 -30 359 -100 508 -116 250 -307 407 -570 469 -81 19 -274 27 -359 15z
m204 -371 c164 -30 268 -145 300 -331 l6 -38 -371 0 c-421 0 -384 -9 -354 91
49 163 147 257 292 278 31 5 60 9 63 10 3 0 32 -4 64 -10z"/>
<path d="M6541 2990 c-166 -23 -312 -91 -412 -190 -110 -108 -157 -237 -145
-391 12 -143 59 -242 165 -341 90 -86 190 -134 447 -214 115 -36 231 -78 258
-92 57 -31 86 -72 86 -122 0 -92 -90 -150 -245 -158 -163 -8 -271 31 -372 135
l-63 65 -165 -93 c-91 -50 -168 -96 -171 -101 -9 -15 45 -97 101 -152 176
-173 465 -257 781 -227 418 41 654 244 654 566 0 156 -51 275 -160 378 -90 85
-205 141 -455 218 -281 87 -331 116 -342 196 -7 54 17 97 70 125 37 20 57 23
162 23 116 0 123 -1 187 -33 46 -22 83 -51 117 -88 l49 -56 166 112 166 112
-33 45 c-92 130 -258 226 -462 269 -87 18 -298 26 -384 14z"/>
<path d="M9362 2988 c-92 -13 -237 -62 -312 -105 -39 -23 -105 -77 -165 -138
-82 -82 -109 -117 -147 -190 -91 -177 -124 -332 -115 -553 16 -446 257 -765
654 -869 125 -32 341 -36 468 -9 172 38 316 115 417 225 50 54 114 148 106
156 -9 10 -339 195 -346 195 -5 0 -13 -10 -19 -22 -25 -53 -96 -118 -168 -154
-63 -31 -86 -37 -162 -41 -99 -6 -178 11 -242 51 -47 30 -114 104 -139 153
-26 49 -52 139 -52 175 l0 28 626 0 626 0 -5 183 c-4 154 -9 196 -30 272 -86
305 -271 511 -542 605 -124 43 -310 59 -453 38z m288 -391 c38 -13 71 -36 106
-71 59 -60 90 -120 108 -208 l13 -63 -365 -3 c-201 -1 -368 0 -371 3 -9 10 17
114 42 170 79 172 272 243 467 172z"/>
<path d="M11555 2989 c-203 -30 -366 -135 -440 -282 l-25 -51 0 142 0 142
-235 0 -235 0 0 -888 c0 -489 2 -891 4 -893 2 -2 121 -3 263 -1 l258 3 0 492
c0 387 3 504 14 547 33 132 122 251 231 309 70 37 194 71 262 71 l48 0 0 200
c0 110 1 203 3 208 3 10 -79 11 -148 1z"/>
<path d="M12761 2985 c-136 -25 -271 -111 -349 -220 l-21 -30 -1 103 0 102
-260 0 -260 0 0 -890 0 -890 244 0 c134 0 251 -3 260 -6 14 -6 16 47 16 548 0
356 4 575 11 613 21 113 79 198 164 240 61 30 234 29 291 -2 90 -48 147 -137
165 -256 5 -34 9 -303 9 -597 -1 -294 2 -536 5 -537 3 -2 120 -3 261 -3 l256
0 -5 663 c-4 626 -5 666 -24 733 -63 223 -204 364 -418 419 -87 22 -255 27
-344 10z"/>
<path d="M18340 2989 c-158 -24 -277 -86 -385 -201 -88 -93 -152 -214 -192
-363 -26 -95 -27 -111 -27 -330 0 -218 1 -235 27 -329 15 -55 47 -142 73 -194
38 -79 60 -109 132 -181 146 -146 268 -193 502 -194 123 -1 142 2 215 27 102
35 162 74 228 147 l53 58 2 -87 c8 -278 -88 -438 -293 -489 -58 -14 -80 -15
-147 -5 -113 16 -194 59 -271 143 l-63 67 -172 -102 -172 -102 38 -63 c49 -83
159 -187 247 -233 243 -127 631 -138 888 -24 187 82 338 256 405 466 51 156
52 182 52 1094 l0 851 -256 -2 -257 -1 2 -94 2 -93 -55 61 c-70 77 -135 119
-232 150 -88 28 -243 38 -344 23z m427 -415 c130 -63 195 -225 194 -489 -1
-249 -67 -407 -198 -471 -76 -38 -192 -40 -270 -5 -144 64 -207 213 -207 486
1 210 30 320 111 414 84 99 243 127 370 65z"/>
<path d="M22303 2989 c-142 -18 -262 -60 -365 -128 -69 -46 -188 -159 -188
-179 0 -5 65 -60 146 -122 l145 -112 54 52 c125 118 323 156 493 96 116 -42
190 -141 192 -257 l0 -46 -212 -6 c-373 -9 -568 -68 -719 -217 -105 -104 -149
-215 -149 -380 0 -277 138 -476 385 -557 68 -22 98 -26 200 -26 198 -1 342 51
455 165 53 53 62 58 60 37 -1 -13 -2 -52 -1 -86 l1 -63 250 0 250 0 0 604 c0
691 -1 703 -74 851 -46 93 -118 176 -200 231 -173 117 -471 176 -723 143z
m477 -1106 c0 -92 -19 -193 -46 -244 -24 -48 -84 -109 -128 -131 -89 -46 -231
-33 -310 27 -86 65 -106 219 -41 317 56 84 157 116 373 117 l152 1 0 -87z"/>
<path d="M17213 2942 l-253 -2 0 -890 0 -889 265 -3 265 -3 0 896 c0 710 -3
895 -12 895 -7 -1 -127 -2 -265 -4z"/>
<path d="M19820 2050 l0 -889 265 -3 265 -3 0 893 0 892 -265 0 -265 0 0 -890z"/>
<path d="M24602 1537 c-114 -42 -174 -180 -127 -295 72 -171 317 -185 402 -23
30 57 32 155 4 209 -52 101 -171 148 -279 109z m169 -58 c68 -34 104 -128 80
-202 -60 -180 -313 -161 -347 26 -13 74 53 177 124 193 15 3 32 7 37 9 17 6
68 -7 106 -26z"/>
<path d="M24601 1462 c-7 -2 -11 -51 -11 -133 l0 -129 25 0 c24 0 25 3 25 55
0 46 3 55 18 55 31 0 54 -25 61 -66 5 -33 10 -39 33 -42 25 -3 26 -2 21 40 -3
24 -11 53 -19 65 -11 18 -11 23 1 33 20 17 19 84 -1 101 -16 13 -131 28 -153
21z m103 -48 c9 -3 16 -16 16 -29 0 -24 -17 -35 -55 -35 -19 0 -23 5 -22 35 1
29 5 35 23 35 12 0 29 -3 38 -6z"/>
</g>
</svg>
